# xmcd
#
# Track frame offsets:
#	183
#	17983
#	34145
#	53445
#	70583
#	93483
#	111770
#	131195
#	148433
#	164733
#
# Disc length: 2510 seconds
#
# Revision: 1
# Processed by: cddbd v1.5.2PL0 Copyright (c) Steve Scherf et al.
# Submitted via: audiograbber 1.81.03
#
DISCID=9209cc0a
DTITLE=PEPSI and SHIRLIE - Change
DYEAR=1991
DGENRE=Funky
TTITLE0=Someday
TTITLE1=Are You Mine
TTITLE2=Break These Chains
TTITLE3=I Give To You
TTITLE4=Change
TTITLE5=Hands To Heaven
TTITLE6=Everything
TTITLE7=Can You Do It Forever
TTITLE8=Love Is
TTITLE9=Life
EXTD=
EXTT0=
EXTT1=
EXTT2=
EXTT3=
EXTT4=
EXTT5=
EXTT6=
EXTT7=
EXTT8=
EXTT9=
PLAYORDER=
